<svg width="36" height="44" viewBox="0 0 36 44" fill="none" xmlns="http://www.w3.org/2000/svg">
<path d="M26.0285 39.6036C26.0285 39.6036 25.8251 39.7792 25.6992 39.5611C25.4349 39.1033 24.9437 38.2526 24.7926 37.9909C24.0947 38.3938 23.2816 37.0023 23.2816 37.0023L23.9868 36.5951C23.9868 36.5951 23.8482 36.355 23.5838 35.8972C22.2727 36.0438 17.693 34.5583 16.182 31.9412C15.4769 30.7199 15.2376 30.3054 15.1119 30.0876C14.9862 29.8699 15.2598 29.5379 15.4697 29.0957C15.3061 28.8124 8.78378 17.5154 8.55714 17.1228C8.33049 16.7303 7.22001 16.62 6.98068 16.2055C6.74134 15.7909 5.22985 13.3244 4.71169 12.0241C4.19354 10.7237 3.82431 9.57968 4.80554 9.01317C5.78676 8.44666 6.85727 8.31201 6.85727 8.31201C6.85727 8.31201 6.67957 7.27332 8.58759 6.17173C10.4956 5.07014 11.3736 5.70449 11.3736 5.70449C11.3736 5.70449 12.0162 4.83193 12.9978 4.26521C13.979 3.6987 14.7887 4.59818 15.6556 5.69676C16.5225 6.79535 17.9922 9.29105 18.2313 9.70524C18.4705 10.1194 18.1009 11.0893 18.3275 11.4819C18.5541 11.8745 25.0765 23.1714 25.2401 23.4548C25.728 23.4941 26.1519 23.4224 26.278 23.6409C26.4041 23.8593 26.6431 24.2732 27.3482 25.4945C28.8591 28.1115 27.8556 32.8201 27.0733 33.8826C27.3376 34.3404 27.4762 34.5805 27.4762 34.5805L28.151 34.1909C28.151 34.1909 28.9799 35.5733 28.282 35.9763C28.4331 36.238 28.9243 37.0887 29.1886 37.5465C29.2914 37.7245 29.0367 37.8668 29.0367 37.8668L26.0285 39.6036Z" fill="black"/>
<path fill-rule="evenodd" clip-rule="evenodd" d="M17.0335 9.44218L18.5405 5.80254L15.6339 0.768059L11.478 5.80111C6.61578 3.73046 7.51768 3.21143 6.88012 8.45571L0.443441 9.53826L3.3501 14.5727L7.25562 15.0875C7.28351 12.4627 8.18219 10.2582 10.2851 9.04406C12.3879 7.82996 14.7465 8.15394 17.0335 9.44218Z" fill="black"/>
</svg>
